<mxfile host="65bd71144e">
    <diagram id="Qbeby1Ch5GiQmaW0W-fa" name="Page-1">
        <mxGraphModel dx="771" dy="593" grid="1" gridSize="10" guides="1" tooltips="1" connect="1" arrows="1" fold="1" page="1" pageScale="1" pageWidth="850" pageHeight="1100" math="0" shadow="0">
            <root>
                <mxCell id="0"/>
                <mxCell id="1" parent="0"/>
                <mxCell id="2" value="User&lt;br&gt;has_many :recipes&lt;br&gt;&lt;br&gt;string :username&lt;br&gt;string :password_digest&lt;br&gt;string :image_url&lt;br&gt;string :bio" style="whiteSpace=wrap;html=1;" vertex="1" parent="1">
                    <mxGeometry x="40" y="110" width="280" height="370" as="geometry"/>
                </mxCell>
                <mxCell id="5" value="Recipe&lt;br&gt;belongs_to :user&lt;br&gt;&lt;br&gt;string :title, must be present&lt;br&gt;text :instructions, must be present and at least 50 characters long&lt;br&gt;integer :minutes_to_complete" style="whiteSpace=wrap;html=1;" vertex="1" parent="1">
                    <mxGeometry x="360" y="110" width="250" height="370" as="geometry"/>
                </mxCell>
            </root>
        </mxGraphModel>
    </diagram>
</mxfile>